<svg width="10" height="10" viewBox="0 0 10 10" fill="none" xmlns="http://www.w3.org/2000/svg">
<path d="M9.55973 0H0.435455C0.0766357 0 -0.128404 0.397683 0.0894506 0.67109L3.04971 4.26266C3.1266 4.36208 3.17786 4.47393 3.20349 4.59821H5.76649C5.90746 4.59821 6.02279 4.71006 6.02279 4.84676C6.02279 4.98346 5.90746 5.09531 5.76649 5.09531H3.22912V9.71838C3.22912 9.91722 3.44698 10.0539 3.6392 9.97935L6.59946 8.79873C6.7148 8.74902 6.77887 8.6496 6.77887 8.53775V4.74734C6.77887 4.57335 6.84295 4.39937 6.95828 4.26266L9.91855 0.67109C10.1236 0.397683 9.91855 0 9.55973 0Z" fill="#0D89FF"/>
</svg>
